# xmcd
#
# Track frame offsets:
#	150
#	12197
#	25919
#	40678
#	52861
#	65533
#	78204
#	88657
#	101636
#	112526
#	122683
#	133950
#	144758
#	157280
#	166919
#	179773
#	191618
#	202397
#	213720
#	225668
#	237804
#	249559
#	267772
#	281280
#	292934
#	304675
#
# Disc length: 4390
#
# Revision: 2
# Processed by: cddbd v1.5.1PL0 Copyright (c) Steve Scherf et al.
# Submitted via: EasyCDDAExtractor 6.2.0.3
# Normalized: r1:DSETVAR1
#
DISCID=6a11241a
DTITLE=Various Artist - Soul City - At The Dark End Of The Street
DYEAR=2001
DGENRE=Soul
TTITLE0=The Shirelles - Will You Love Me Tomorrow
TTITLE1=Ben E King - Stand By Me
TTITLE2=Percy Sledge - Warm and Tender Love
TTITLE3=The Impressions - For Your Precios Love
TTITLE4=Bobby Womack - Done Look Back
TTITLE5=Carla Thomas - B-A-B-Y
TTITLE6=Eddie Floyd - Bring It On Home To Me
TTITLE7=Mary Wells - Two Lovers
TTITLE8=Barbara Lewis - B aby I'm Yours
TTITLE9=The Shirelles - Dedicated To The One I Love
TTITLE10=Solomon Burke - If You Need Me
TTITLE11=The Crystals - There's No Other (Like My Baby)
TTITLE12=Percy Sledge - The Dark End If The Street
TTITLE13=Dee Clark - Just Keep It Up
TTITLE14=The Drifters - You Send Me
TTITLE15=Barbara Lynn - You'll Lose A Good Thing
TTITLE16=Phil Phillips - Sea Of Love
TTITLE17=Barbara Lewis - Make Me Your Baby
TTITLE18=Etta James - Something's Got A Hold On Me
TTITLE19=Marv Johnson - I Love The Way You Love Me
TTITLE20=Little Anthony and The Imperials - Goin' Out Of My Head
TTITLE21=Ike and Tina Turner - He Belongs To Me
TTITLE22=The Impressions - It's Alright
TTITLE23=Clarence Carter - Slip Away
TTITLE24=The Chanrels - Maybe
TTITLE25=Bobby Womack - If You Think You're Lonely Now
EXTD=
EXTT0=
EXTT1=
EXTT2=
EXTT3=
EXTT4=
EXTT5=
EXTT6=
EXTT7=
EXTT8=
EXTT9=
EXTT10=
EXTT11=
EXTT12=
EXTT13=
EXTT14=
EXTT15=
EXTT16=
EXTT17=
EXTT18=
EXTT19=
EXTT20=
EXTT21=
EXTT22=
EXTT23=
EXTT24=
EXTT25=
PLAYORDER=
